<?xml version="1.0" encoding="UTF-8"?>
<svg id="Layer_1" xmlns="http://www.w3.org/2000/svg" version="1.1" viewBox="0 0 800 800">
  <!-- Generator: Adobe Illustrator 30.2.1, SVG Export Plug-In . SVG Version: 2.1.1 Build 1)  -->
  <path d="M351,357.67c-3.33-10.33-6.33-20.33-9.67-30.67s-6.33-20-9-29.67c-2.67-9.33-5-18-7.33-26h-.67c-3,14.33-6.67,28.67-11.33,43-5,16-10,32.67-15.33,49.33-4.67,17-9.67,32.67-14.67,46.67h84.67c-2-7.03-4.67-15.33-7.67-24.03-3-8.97-6-18.63-9-28.63h0ZM658.33,10H141.67C63.33,10,0,73.33,0,151.67v496.67c0,78.33,63.33,141.66,141.67,141.66h516.67c78.33,0,141.67-63.33,141.67-141.67V151.67c0-78.33-63.33-141.67-141.67-141.67h0ZM490,561h-69.7c-2.3.33-4.63-1.33-5.3-3.67l-27.33-79.33h-124l-25.33,78.33c-.67,3-3.33,5-6.33,4.7h-62.67c-3.67,0-4.67-2.03-3.67-6l107.33-309.03c1-3.33,2-7,3.33-11,1.33-7,2-14.33,2-21.67-.33-1.67,1-3.33,2.67-3.67h86.33c2.67,0,4,1,4.33,2.67l121.67,343.33c1,3.63,0,5.33-3.33,5.33h0ZM603.33,556c0,3.67-1.3,5.33-4.3,5.33h-65.37c-3.33,0-5-2.03-5-5.33v-256.67c0-3.33,1.37-4.67,4.37-4.67h66c3,0,4.3,1.67,4.3,4.67v256.67ZM596.37,255c-7.7,8-19.03,12.33-30.37,11.67-11,.33-21.67-4-29.7-11.67-7.67-8.33-11.67-19.33-11.33-30.67-.33-11.33,4-22,11.97-29.67,8.07-7.67,18.73-11.67,29.73-11.67,13.03,0,22.97,4,30.33,11.67,7.33,8,11.33,18.67,11,29.67.33,11.33-3.67,22.33-11.63,30.67h0Z"/>
</svg>