<?xml version="1.0" encoding="UTF-8"?>
<svg id="Layer_1" xmlns="http://www.w3.org/2000/svg" version="1.1" viewBox="0 0 800 800">
  <!-- Generator: Adobe Illustrator 30.2.1, SVG Export Plug-In . SVG Version: 2.1.1 Build 1)  -->
  <path d="M328.33,280.67c-12.33-5-25.67-7-39.33-6.67-8.67,0-16.33,0-22.67.33-6.67-.33-11.33,0-13.67.33v112c4.67.33,9,.67,13,.67h17.67c13,0,26-2,38.33-6,10.67-3,20-9.33,27.33-17.67,7-8.33,10.33-19.67,10.33-34.33.33-10.33-2.33-20.67-7.67-29.67-5.67-8.67-13.67-15.33-23.33-19h.01ZM658.33,10H141.67C63.33,10,0,73.33,0,151.67v496.63c0,78.33,63.33,141.67,141.67,141.67h516.67c78.33,0,141.67-63.33,141.67-141.67V151.67c0-78.33-63.33-141.67-141.67-141.67h0ZM411.97,398.33c-13.3,18.67-31.97,32.67-53.63,40.67-22.67,8.33-47.67,11.33-75,11.33-8,0-13.33,0-16.67-.33s-8-.33-14.33-.33v106.97c.33,2.33-1.33,4.37-3.67,4.7h-64.67c-2.67,0-4-1.37-4-4.37V214c0-2.33,1-3.67,3.33-3.67,5.67,0,11,0,18.67-.33,8-.33,16.33-.33,25.33-.67s18.67-.33,29-.67c10.33-.33,20.33-.33,30.33-.33,27.33,0,50,3.33,68.67,10.33,16.67,5.67,32,15,44.67,27.33,10.67,10.67,19,23.67,24.33,38,4.97,14,7.63,28.33,7.63,43.33.03,28.67-6.63,52.33-20,71h.01ZM648.33,528c-9.33,13.33-22.37,23.63-37.33,29.7-16.33,6.97-36.33,10.6-60.37,10.6-15.3,0-30.33-1.3-45.3-4.3-11.67-2.03-23.33-5.67-34-10.67-2.33-1.3-4.03-3.63-3.7-6.3v-58c0-.97.37-2.33,1.37-3,.97-.67,2-.33,3,.33,13,7.67,26.67,13.03,41.33,16.33,12.63,3.33,25.97,5,39.33,5,12.67,0,21.67-1.7,27.67-4.7,5.33-2.33,9-8,9-14,0-4.7-2.67-9-8-13.33-5.33-4.3-16.3-9.3-32.63-15.7-17-6-32.63-14-47.33-23.97-10.33-7.37-18.97-17-25.37-28.33-5.3-10.67-7.97-22.33-7.63-34.03,0-14.33,4-28,11.37-40.33,8.33-13.33,20.63-24,34.97-30.67,15.63-7.97,35.3-11.63,58.97-11.63,13.67,0,27.67,1,41.33,3,10,1.33,19.67,4,28.67,7.67,1.3.33,2.67,1.67,3.33,3,.33,1.33.67,2.67.67,4v54.33c0,1.33-.67,2.67-1.67,3.33-3,.67-4.67.67-6,0-10-5.33-20.67-9-32-11.33-12.33-2.67-24.67-4.33-37.33-4.33-6.67-.33-13.67.67-20.03,2.33-4.3,1-8,3.33-10.33,6.67-1.67,2.67-2.67,6-2.67,9s1.33,6,3.37,8.67c3,3.67,6.97,6.67,11.33,9,7.63,4,15.67,7.67,23.63,11,18.03,6,35.37,14.33,51.37,24.33,11,6.97,20,16.33,26.3,27.67,5.33,10.6,8,22.33,7.67,34.3.37,15.7-4.3,31.33-12.97,44.37h-.02Z"/>
</svg>