<?xml version="1.0" encoding="UTF-8"?>
<svg id="Layer_1" xmlns="http://www.w3.org/2000/svg" version="1.1" viewBox="0 0 800 800">
  <!-- Generator: Adobe Illustrator 30.2.1, SVG Export Plug-In . SVG Version: 2.1.1 Build 1)  -->
  <path d="M646.56,294.52v64.29c0,2.64-1.64,3.61-5.28,3.61-1.56-.05-3.38-.11-5.2-.11-21.03,0-41,4.54-58.99,12.66l.9-.37c-6.6,3.01-12.19,7.12-16.78,12.16l-.03.05v168.13c0,3.3-1.32,4.62-4.27,4.62h-64.95c-.21.03-.45.05-.69.05-2.35,0-4.27-1.74-4.56-3.98v-183.98l-.32-24.72-.66-25.72c0-7.57-.66-14.83-1.32-22.42-.03-.13-.03-.32-.03-.47,0-1.48.98-2.74,2.32-3.14h58.72c3.19,0,5.88,2.24,6.57,5.22v.05c2.72,8.68,4.3,18.65,4.3,28.97v1.42-.08c9.92-11.4,21.71-20.89,34.95-28.02l.66-.32c14.3-8.1,31.42-12.85,49.62-12.85h.5-.03c.16-.03.34-.03.53-.03,2.11,0,3.85,1.58,4.09,3.64v.03l-.08,1.29.03.02ZM421.74,398.38c-13.19,18.2-31.26,32.13-52.29,39.97l-.79.26c-20.45,7.15-44,11.29-68.51,11.29-1.98,0-3.98-.03-5.96-.08h.29l-16.49-.32-14.17-.32v105.81c.03.21.05.42.05.66,0,2.08-1.61,3.8-3.67,3.96h-63.95c-2.64,0-3.96-1.32-3.96-4.27V216.11c0-2.3.98-3.61,3.3-3.61l18.47-.32,25.06-.66,28.68-.66,30-.32c1.66-.05,3.61-.08,5.57-.08,22.32,0,43.74,3.77,63.71,10.71l-1.37-.42c17.25,5.96,32,15.2,44.21,27.07l-.03-.03c10.34,10.37,18.52,22.9,23.82,36.85l.24.71c4.77,12.74,7.54,27.46,7.57,42.84h0c.05,1.4.11,3.06.11,4.72,0,24.43-7.41,47.09-20.13,65.93l.26-.42-.03-.05h.01ZM655.47,14.3H144.5C67.13,14.3,4.39,77.03,4.39,154.41h0v491.32c0,77.32,62.68,140,140,140h511.21c77.32,0,140-62.68,140-140v-.13h0V154.27c0-77.32-62.68-140-140-140h-.13s0,.03,0,.03ZM338.98,281.98c-10.45-4.22-22.56-6.67-35.24-6.67-1.29,0-2.56.03-3.83.08h.18c-11.98-.25-23.95-.03-35.93.66v110.77l12.85.66h17.6c13.51,0,26.49-2.16,38.65-6.17l-.87.24c10.84-3.24,20.02-9.34,26.96-17.41l.05-.08c6.44-8.44,10.31-19.13,10.31-30.73,0-1.13-.03-2.24-.11-3.38v.16c.08-1.03.13-2.24.13-3.46,0-20.29-12.64-37.62-30.47-44.56l-.32-.11h.04Z"/>
</svg>